<mxfile host="app.diagrams.net" modified="2023-08-28T15:00:03.538Z" agent="Mozilla/5.0 (Windows NT 10.0; Win64; x64) AppleWebKit/537.36 (KHTML, like Gecko) Chrome/116.0.0.0 Safari/537.36" etag="oUnLjqN09rOno0UOGklv" version="21.6.9" type="device">
  <diagram id="C5RBs43oDa-KdzZeNtuy" name="Page-1">
    <mxGraphModel dx="874" dy="478" grid="1" gridSize="10" guides="1" tooltips="1" connect="1" arrows="1" fold="1" page="1" pageScale="1" pageWidth="827" pageHeight="1169" math="0" shadow="0">
      <root>
        <mxCell id="WIyWlLk6GJQsqaUBKTNV-0" />
        <mxCell id="WIyWlLk6GJQsqaUBKTNV-1" parent="WIyWlLk6GJQsqaUBKTNV-0" />
        <mxCell id="x7urpHrVHhKWh3O8s67w-7" value="" style="edgeStyle=orthogonalEdgeStyle;rounded=0;orthogonalLoop=1;jettySize=auto;html=1;" edge="1" parent="WIyWlLk6GJQsqaUBKTNV-1" source="x7urpHrVHhKWh3O8s67w-0" target="x7urpHrVHhKWh3O8s67w-1">
          <mxGeometry relative="1" as="geometry" />
        </mxCell>
        <mxCell id="x7urpHrVHhKWh3O8s67w-0" value="" style="ellipse;whiteSpace=wrap;html=1;aspect=fixed;strokeColor=#000000;fillColor=#000000;" vertex="1" parent="WIyWlLk6GJQsqaUBKTNV-1">
          <mxGeometry x="340" y="40" width="60" height="60" as="geometry" />
        </mxCell>
        <mxCell id="x7urpHrVHhKWh3O8s67w-8" value="" style="edgeStyle=orthogonalEdgeStyle;rounded=0;orthogonalLoop=1;jettySize=auto;html=1;" edge="1" parent="WIyWlLk6GJQsqaUBKTNV-1" source="x7urpHrVHhKWh3O8s67w-1" target="x7urpHrVHhKWh3O8s67w-3">
          <mxGeometry relative="1" as="geometry" />
        </mxCell>
        <mxCell id="x7urpHrVHhKWh3O8s67w-1" value="valorHora&amp;lt;-10" style="rounded=0;whiteSpace=wrap;html=1;" vertex="1" parent="WIyWlLk6GJQsqaUBKTNV-1">
          <mxGeometry x="310" y="130" width="120" height="60" as="geometry" />
        </mxCell>
        <mxCell id="x7urpHrVHhKWh3O8s67w-12" style="edgeStyle=orthogonalEdgeStyle;rounded=0;orthogonalLoop=1;jettySize=auto;html=1;entryX=0.5;entryY=0;entryDx=0;entryDy=0;" edge="1" parent="WIyWlLk6GJQsqaUBKTNV-1" source="x7urpHrVHhKWh3O8s67w-2" target="x7urpHrVHhKWh3O8s67w-4">
          <mxGeometry relative="1" as="geometry" />
        </mxCell>
        <mxCell id="x7urpHrVHhKWh3O8s67w-2" value="horasTrabajadas" style="shape=parallelogram;perimeter=parallelogramPerimeter;whiteSpace=wrap;html=1;fixedSize=1;" vertex="1" parent="WIyWlLk6GJQsqaUBKTNV-1">
          <mxGeometry x="300" y="310" width="140" height="60" as="geometry" />
        </mxCell>
        <mxCell id="x7urpHrVHhKWh3O8s67w-10" style="edgeStyle=orthogonalEdgeStyle;rounded=0;orthogonalLoop=1;jettySize=auto;html=1;entryX=0.5;entryY=0;entryDx=0;entryDy=0;" edge="1" parent="WIyWlLk6GJQsqaUBKTNV-1" source="x7urpHrVHhKWh3O8s67w-3" target="x7urpHrVHhKWh3O8s67w-2">
          <mxGeometry relative="1" as="geometry" />
        </mxCell>
        <mxCell id="x7urpHrVHhKWh3O8s67w-3" value="&quot;Ingrese el numero de horas trabajadas&quot;" style="shape=document;whiteSpace=wrap;html=1;boundedLbl=1;" vertex="1" parent="WIyWlLk6GJQsqaUBKTNV-1">
          <mxGeometry x="307.5" y="220" width="125" height="70" as="geometry" />
        </mxCell>
        <mxCell id="x7urpHrVHhKWh3O8s67w-13" style="edgeStyle=orthogonalEdgeStyle;rounded=0;orthogonalLoop=1;jettySize=auto;html=1;entryX=0.5;entryY=0;entryDx=0;entryDy=0;" edge="1" parent="WIyWlLk6GJQsqaUBKTNV-1" source="x7urpHrVHhKWh3O8s67w-4" target="x7urpHrVHhKWh3O8s67w-5">
          <mxGeometry relative="1" as="geometry" />
        </mxCell>
        <mxCell id="x7urpHrVHhKWh3O8s67w-4" value="sueldo&amp;lt;-valorHora * horasTrabajadas" style="rounded=0;whiteSpace=wrap;html=1;" vertex="1" parent="WIyWlLk6GJQsqaUBKTNV-1">
          <mxGeometry x="310" y="390" width="120" height="60" as="geometry" />
        </mxCell>
        <mxCell id="x7urpHrVHhKWh3O8s67w-14" style="edgeStyle=orthogonalEdgeStyle;rounded=0;orthogonalLoop=1;jettySize=auto;html=1;entryX=0.5;entryY=0;entryDx=0;entryDy=0;" edge="1" parent="WIyWlLk6GJQsqaUBKTNV-1" source="x7urpHrVHhKWh3O8s67w-5" target="x7urpHrVHhKWh3O8s67w-6">
          <mxGeometry relative="1" as="geometry" />
        </mxCell>
        <mxCell id="x7urpHrVHhKWh3O8s67w-5" value="&quot;El sueldo del operario es:&quot;, sueldo" style="shape=document;whiteSpace=wrap;html=1;boundedLbl=1;" vertex="1" parent="WIyWlLk6GJQsqaUBKTNV-1">
          <mxGeometry x="310" y="475" width="120" height="80" as="geometry" />
        </mxCell>
        <mxCell id="x7urpHrVHhKWh3O8s67w-6" value="" style="ellipse;whiteSpace=wrap;html=1;aspect=fixed;fillColor=#000000;" vertex="1" parent="WIyWlLk6GJQsqaUBKTNV-1">
          <mxGeometry x="340" y="580" width="60" height="60" as="geometry" />
        </mxCell>
      </root>
    </mxGraphModel>
  </diagram>
</mxfile>
